<svg version="1.1" xmlns="http://www.w3.org/2000/svg" style="display: block;" viewBox="0 0 2048 830" width="740" height="300" preserveAspectRatio="none">
<path transform="translate(0,0)" fill="rgb(200,169,109)" d="M 1496.61 91.0171 C 1502.06 90.7465 1509.8 90.9123 1512.31 96.9554 C 1515.89 105.571 1507.06 112.807 1502.79 119.122 C 1493.44 132.985 1482.68 145.787 1472.75 159.216 C 1460.35 176.644 1449.71 195.397 1436.93 212.558 C 1432.44 218.559 1423.69 226.275 1418.4 232.372 C 1412.16 239.558 1406.66 246.336 1400.95 254.168 C 1377.02 288.035 1356.2 323.452 1331.11 356.555 C 1322.36 368.102 1249.1 446.623 1253 454.964 C 1287.9 460.027 1319.57 452.609 1351.91 439.707 C 1380.63 428.249 1373.12 422.633 1390.87 403.948 L 1405 404.093 C 1405.17 425.976 1396.41 439.792 1389.3 460.39 C 1387.36 466.027 1378.53 477.062 1379.11 481.09 L 1380.34 481.605 C 1404.01 474.519 1430.9 460.581 1445.89 440.042 C 1450.92 433.16 1455.92 421.487 1461.89 412.87 C 1466.91 412.593 1473.54 412.779 1478.7 412.783 C 1478.91 450.222 1470.2 448.546 1446.44 473.674 C 1439.31 481.212 1431.99 496.019 1425.18 504.011 C 1409.51 522.419 1400.6 537.588 1390.52 559.354 C 1399.3 549.589 1409.85 538.811 1419.52 529.963 C 1427.02 523.108 1435.88 517.635 1443.4 510.383 C 1471.88 482.957 1497.96 453.096 1529.16 428.692 C 1538.08 421.634 1547.97 409.969 1556.93 402.003 C 1556.6 387.906 1553.49 378.19 1552.79 365.812 C 1552.19 352.254 1560.06 337.138 1562.31 324.94 C 1567.12 298.921 1578.66 278.643 1589.67 255.02 C 1593.07 247.729 1601.13 238.999 1605.63 231.794 C 1610.61 223.846 1616.24 214.887 1621.83 207.249 C 1636.52 192.089 1647.45 175.364 1660.2 158.869 C 1667.12 149.918 1679.1 141.529 1686.72 132.596 C 1697.64 120.165 1705.81 102.115 1721.99 95.7226 C 1727.03 93.7345 1734.16 98.2547 1734.4 103.371 C 1735.42 125.8 1737.17 153.184 1732.29 174.987 C 1728.9 190.155 1718.94 207.181 1712.51 221.251 C 1702.99 242.888 1690.63 263.045 1679.54 283.603 C 1669.54 302.119 1666.31 311.486 1650.86 327.494 C 1646.39 332.131 1637 346.705 1632.37 352.648 C 1618.66 370.248 1593.21 385.062 1582.39 402.935 C 1604.36 414.432 1613.6 435.072 1634 434.586 C 1662.38 433.912 1709.28 405.038 1729.04 385.374 C 1737.98 376.475 1749.33 356.148 1759.41 346.906 C 1763.83 342.21 1768.15 343.011 1774.06 342.937 C 1790.09 342.737 1787.39 356.205 1786.95 367.343 C 1781.58 373.227 1775.46 379.972 1769.32 384.904 C 1761.04 391.552 1753.59 396.339 1745.97 403.894 C 1771.19 404.403 1785.95 402.914 1810.6 400.079 C 1834.79 397.295 1847.68 403.556 1873.55 394.366 C 1873.55 393.196 1873.57 392.026 1873.59 390.857 C 1874.12 365.338 1876.59 364.014 1900.73 364.974 C 1900.26 375.627 1900.4 384.18 1900.96 394.777 L 1901.23 394.968 C 1903.28 396.415 1906.81 398.307 1908.51 399.754 C 1921.94 411.171 2005.92 396.375 1976.6 431.092 C 1958.87 422.805 1928.09 423.842 1908.57 419.692 C 1905.39 419.716 1885.58 409.898 1884.46 410.416 C 1861.72 420.927 1841.1 415.937 1817.1 417.201 C 1803.5 417.917 1791.17 421.951 1776.13 421.667 C 1763.28 421.723 1749.69 422.011 1736.94 421.154 C 1733 417.708 1729.81 415.485 1725.54 412.497 C 1700.92 434.995 1665.04 452.503 1631.04 452.417 C 1600.4 452.34 1589.79 432.96 1566.9 416.667 C 1557.36 432.303 1533.34 450.107 1519.79 463.471 C 1508.72 473.651 1498.83 488.435 1487.24 497.851 C 1468.87 512.533 1452.24 528.652 1434.39 543.912 C 1424.67 552.22 1416.35 563.894 1407.3 573.459 C 1399.35 581.847 1388.37 588.868 1381.11 596.933 C 1366.33 613.361 1351.03 629.896 1337.15 647.129 C 1331.22 654.578 1321.35 662.601 1315.22 670.403 C 1304.1 684.541 1292.4 707.385 1281.3 720.642 C 1272.25 731.457 1254.59 747.655 1244.2 757.841 C 1231.5 770.301 1227.35 770.792 1215.77 786.601 L 1200.08 787.089 C 1199.94 780.314 1200.22 774.714 1200.62 767.939 C 1213.47 754.852 1219.87 739.492 1231.44 726.971 C 1251.39 705.373 1273.41 686.442 1291.38 662.792 C 1297.23 655.082 1307.01 648.155 1312.93 639.652 C 1319.82 629.76 1324.22 618.887 1330.85 609.048 L 1410.47 490.646 C 1383.7 503.477 1393.64 509.08 1360.89 508.943 C 1360.79 495.117 1360.86 481.291 1361.1 467.466 C 1365.11 462.323 1369.03 457.115 1372.87 451.846 C 1362.73 455.167 1352.16 461.158 1340.8 464.922 C 1303.5 477.281 1270.34 472.027 1232.33 474.798 C 1231.74 475.543 1231.13 476.265 1230.49 476.962 C 1208.5 500.839 1189.53 516.193 1155.63 517.696 C 1149.69 513.568 1144.38 507.592 1139.68 502.192 C 1139.48 500.299 1139.35 498.399 1139.28 496.497 C 1139 486.786 1133.4 437.073 1152.27 443.266 C 1174.69 450.623 1194.45 456.134 1218.48 455.82 C 1239.95 441.31 1247.76 419.916 1264.28 403.625 C 1324.66 344.088 1359 268.472 1415.78 206.967 C 1418.21 204.329 1467.95 131.057 1467.94 131.721 C 1453.09 137.408 1426.68 138.434 1410.26 140.715 C 1398.37 142.367 1385.71 145.692 1373.92 147.076 C 1329.69 152.266 1286.13 156.954 1242.15 164.372 C 1213.55 169.198 1184.68 181.148 1156.13 185.736 C 1143.3 187.797 1120.08 187.09 1106.54 186.602 C 1102.3 182.939 1095.63 178.667 1095.72 172.723 C 1098.89 164.174 1106.48 164.864 1113.91 166.475 C 1131.26 170.152 1147.47 171.024 1164.48 165.164 C 1231.73 142.003 1301.82 138.277 1371.72 129.366 C 1382.07 128.046 1393.05 123.957 1403.25 122.807 C 1421 120.806 1439.09 120.096 1456.55 115.715 C 1467.78 112.877 1487.09 98.4693 1496.61 91.0171 z M 1575.68 378.329 C 1598.08 355.29 1617.49 344.749 1633.7 316.128 C 1641.41 302.508 1656.53 289.632 1662.23 272.679 C 1684.88 232.66 1714.13 187.087 1717.55 140.352 C 1717.69 137.657 1717.13 127.943 1715.7 125.894 C 1711.88 135.464 1700.2 147.031 1693.7 155.392 C 1686.79 164.274 1676.19 171.754 1668.61 180.178 C 1661.72 187.825 1656.69 197.476 1650.38 205.598 C 1622.98 236.472 1601.63 272.198 1585.72 310.206 C 1581.57 320.119 1569.27 370.226 1575.68 378.329 z M 1188.54 484.98 C 1194.28 481.429 1195.79 480.19 1200.63 475.478 C 1196.19 473.607 1192.25 471.869 1187.51 470.862 C 1177.84 468.809 1165.22 470.809 1157.01 465.52 C 1156.12 495.783 1159.67 502.878 1188.54 484.98 z"/>
<path transform="translate(0,0)" fill="rgb(200,169,109)" d="M 323.92 87.1265 C 368.036 86.138 365.178 80.7832 365.502 125.602 C 365.732 157.336 363.031 186.535 360.183 218.156 C 359.161 229.502 353.783 242.441 352.063 253.835 C 347.099 285.743 338.322 316.614 327.627 347.031 C 319.092 372.346 283.562 444.856 293.001 469.219 L 294.923 469.416 C 304.419 465.2 342.192 422.919 353.091 413.679 C 358.983 408.076 372.91 402.996 377.996 397.246 C 394.24 378.882 393.03 369.452 421.263 368.858 C 421.896 376.001 426.173 390.934 425.428 396.38 C 421.009 428.67 406.686 430.874 419.901 464.132 C 422.465 465.282 425.579 467.254 428.061 468.727 C 440.434 461.791 452.887 451.739 463.319 442.174 C 472.815 433.466 518.209 382.664 528.052 382.385 C 531.151 382.297 533.999 383.121 536.261 385.304 C 546.726 395.409 544.076 421.846 544.119 435.176 C 551.763 428.202 577.319 404.247 585.815 404.14 C 588.175 404.091 590.445 405.047 592.059 406.77 C 597.513 412.642 596.241 423.834 596.037 431.535 C 649.715 376.639 634 429.893 643.079 441.223 C 655.745 448.858 681.784 437.992 694.459 438.613 L 694.906 438.639 C 697.352 420.045 708.344 387.409 731.151 386.359 C 745.826 385.683 744.007 400.242 744.058 410.488 C 744.094 417.695 743.848 425.09 743.708 432.354 C 738.306 438.199 732.952 444.34 726.621 449.197 C 722.321 452.495 718.298 452.029 713.297 453.622 L 713.212 456.353 C 715.087 460.692 718.055 463.317 721.324 466.713 C 737.387 453.512 772.965 416.881 785.048 400.609 C 803.345 393.07 800.582 419.558 800.169 430.084 C 821.673 430.166 842.114 431.039 863.444 427.656 C 895.081 422.638 927.41 419.347 957.774 408.482 C 969.577 404.259 979.544 396.495 991.714 392.248 C 995.312 386.517 997.35 383.08 1001.91 378.135 C 1007.09 377.949 1012.61 377.967 1017.83 377.892 L 1017.72 392.372 C 1016.45 394.388 1015.08 396.332 1013.59 398.194 C 978.297 441.704 832.972 451.477 780.038 447.11 C 780.038 447.11 776.757 444.418 776.397 444.122 C 774.107 444.581 768.72 451.049 766.639 453.255 C 758.02 461.909 748.901 471.69 740.027 479.949 C 731.011 488.34 722.395 487.393 711.369 486.36 C 707.174 483.393 702.343 480.276 698.413 477.046 C 695.252 474.168 696.094 457.19 689.443 457.994 C 674.461 459.805 653.09 465.262 638.396 465.497 C 636.34 464.109 634.356 462.616 632.454 461.023 C 623.681 453.546 621.269 449.412 620.367 438.209 C 574.138 487.141 583.575 446.111 573.761 439.708 C 559.815 442.537 543.783 474.619 529.341 474.319 C 511.834 466.296 531.533 424.1 523.655 412.987 L 521.69 412.7 C 518.347 414.704 510.227 426.038 506.818 429.973 C 490.67 448.612 467.619 466.076 449.301 481.907 C 441.281 488.837 414.123 490.191 406.604 482.549 C 399.248 475.072 399.582 469.448 399.03 459.267 C 390.901 467.515 387.055 474.287 379.726 482.555 C 373.065 488.372 352.315 505.09 344.106 507.123 C 311.102 515.297 332.104 472.552 336.493 463.625 C 327.661 470.392 313.797 480.372 306.09 487.643 C 296.217 496.959 286.986 513.928 277.553 524.584 C 269.3 533.909 259.23 541.358 251.224 550.651 C 248.701 553.574 246.414 556.693 244.387 559.98 C 237.392 571.568 231.596 591.279 225.992 604.312 C 218.146 622.559 207.217 641.399 200.14 659.48 C 184.423 699.848 172.475 742.303 145.692 777.277 C 140.923 782.87 130.064 801.899 121.947 801.306 C 114.705 800.698 111.802 785.738 113.621 780.904 C 120.691 762.111 129.848 745.753 133.855 725.825 C 136.454 715.806 138.163 704.661 142.104 695.051 C 156.928 658.905 176.05 623.496 197.909 591.14 C 207.42 577.59 217.615 566.112 225.884 551.652 C 238.778 529.103 243.038 505.855 251.004 481.573 C 255.743 467.128 265.906 452.482 268.651 437.054 C 272.566 415.061 262.904 393.611 264.976 371.357 C 266.052 346.906 264.065 321.803 264.961 297.277 C 265.385 285.678 266.078 275.646 268.63 264.281 C 270.781 251.496 273.95 239.725 276.961 227.171 C 278.517 220.681 278.079 212.263 279.581 205.588 C 287.313 174.242 291.497 140.561 304.188 110.742 C 307.623 102.672 317.322 92.533 323.92 87.1265 z M 285.628 399.53 C 290.575 393.048 295.619 377.185 298.935 369.329 C 316.059 328.645 327.283 286.346 334.899 242.95 C 336.958 232.319 341.178 218.95 342.58 208.604 C 344.464 194.693 343.209 180.924 345.92 167.173 C 347.569 158.812 349.417 109.985 347.143 104.739 L 345.473 103.985 C 315.316 110.31 306.806 166.78 302.277 192.007 C 301.552 196.049 296.077 210.247 296.328 212.823 C 298.93 239.519 285.858 261.823 283.533 287.491 C 281.767 306.99 283.457 326.709 282.93 346.247 C 283.12 362.444 282.204 382.486 283.246 398.03 L 284.262 399.59 L 285.628 399.53 z M 354.617 477.351 C 363.508 468.291 371.486 457.745 380.463 448.646 C 381.706 447.386 383.425 437.28 384.686 434.734 C 387.54 428.974 394.066 422.574 395.113 415.999 C 395.285 414.918 394.402 414.489 393.47 413.607 C 385.199 420.793 353.107 467.139 353.13 475.889 L 354.617 477.351 z M 263.226 510.136 C 267.723 504.117 278.604 491.384 271.505 483.715 C 268.854 488.402 261.383 505.604 262.653 510.38 L 263.226 510.136 z M 158.129 712.389 C 160.819 707.415 169.972 692.344 169.187 687.642 L 168.249 686.686 C 165.192 691.462 156.041 706.875 157.415 712.088 L 158.129 712.389 z"/>
<path transform="translate(0,0)" fill="rgb(0,0,0)" fill-opacity="0.0117647" d="M 271.505 483.715 C 278.604 491.384 267.723 504.117 263.226 510.136 L 262.653 510.38 C 261.383 505.604 268.854 488.402 271.505 483.715 z"/>
<path transform="translate(0,0)" fill="rgb(0,0,0)" fill-opacity="0.215686" d="M 168.249 686.686 L 169.187 687.642 C 169.972 692.344 160.819 707.415 158.129 712.389 L 157.415 712.088 C 156.041 706.875 165.192 691.462 168.249 686.686 z"/>
</svg>