<svg version="1.1" xmlns="http://www.w3.org/2000/svg" style="display: block;" viewBox="0 0 2048 830" width="740" height="300" preserveAspectRatio="none">
<defs>
	<linearGradient id="Gradient1" gradientUnits="userSpaceOnUse" x1="125.267" y1="651.323" x2="163.733" y2="650.677">
		<stop class="stop0" offset="0" stop-opacity="0" stop-color="rgb(0,0,0)"/>
		<stop class="stop1" offset="1" stop-opacity="0.0352941" stop-color="rgb(0,0,0)"/>
	</linearGradient>
</defs>
<path transform="translate(0,0)" fill="rgb(0,0,0)" fill-opacity="0.976471" d="M 1475.35 62.8957 C 1478.65 63.8105 1479.6 63.971 1482.31 66.0225 C 1483.87 70.0222 1483.76 72.8875 1481 76.6015 C 1456.4 109.7 1432.38 142.274 1409.95 176.919 C 1398.35 191.518 1384.09 205.205 1373.21 220.237 C 1348.6 254.228 1326.23 291.667 1301.07 325.041 C 1288.71 341.432 1220.43 414.853 1219.01 427.791 C 1221.65 429.021 1258.87 428.095 1264.77 427.6 C 1287.57 425.692 1311.62 420.988 1332.17 410.381 C 1336.5 408.15 1341.15 407.025 1345.32 404.445 C 1354.75 399.483 1359.54 378.437 1370.02 377.654 C 1372.3 378.482 1378.36 382.031 1377.4 384.307 C 1368.63 405.117 1361.76 426.852 1350.09 446.354 C 1349.28 447.692 1348.9 458.03 1348.83 459.604 C 1375.51 447.362 1402.29 436.529 1422.04 413.886 C 1428.81 406.125 1431.16 387.035 1444.04 385.871 C 1447.76 387.021 1450.2 390.264 1452.88 393.155 C 1442.81 420.275 1428.17 427.585 1411.46 449.432 C 1404.99 456.947 1398.97 469.233 1392.54 476.408 C 1376.88 493.909 1367.71 511.675 1358.02 532.8 C 1355.41 538.49 1350.13 542.892 1347.41 548.259 L 1348.11 549.175 C 1354.71 547.694 1395.89 502.051 1404.78 494.798 C 1434.49 470.552 1461.08 442.903 1487.92 415.64 C 1503.07 400.255 1521.19 391.156 1533.3 372.125 C 1531.67 357.979 1533.77 350.863 1528.08 337.382 C 1531.48 328.077 1531.37 323.146 1533.75 314.564 C 1538.53 300.276 1541 284.018 1545.74 269.945 C 1549.11 259.926 1557.4 251.662 1560.5 239.654 C 1563.55 227.869 1575.51 215.142 1581.56 204.779 C 1590.35 189.755 1600.45 176.955 1612.16 164.069 C 1619.46 155.76 1625.39 143.976 1633.42 135.857 C 1642.75 126.436 1652.4 117.394 1661.02 107.295 C 1672.57 94.369 1680.67 75.6893 1696.52 69.014 C 1699.92 67.5802 1701.32 68.1756 1704.13 69.4797 C 1707.86 75.1715 1705.67 88.9005 1706.31 95.4012 C 1710.5 137.552 1694.09 169.31 1675.05 205.413 C 1666.81 221.03 1660.7 238.107 1648.62 252.157 C 1645.58 256.406 1643.55 268.57 1640.52 271.814 C 1628.03 285.169 1617.19 301.418 1606.16 315.888 C 1598.88 325.437 1553.05 365.264 1552.52 372.855 C 1556.57 378.131 1564.17 381.771 1568.62 385.858 C 1576.67 393.245 1582.51 401.26 1593.75 404.546 C 1615.2 411.315 1629.77 402.529 1648.34 395.395 C 1670.81 386.765 1683.05 372.728 1703.38 362.366 C 1708.71 352.839 1749.68 290.705 1758.82 324.395 C 1762.99 339.773 1721.25 362.693 1720.08 372.385 C 1721.2 373.394 1722.47 374.38 1723.95 374.791 C 1740.17 379.282 1772.22 372.622 1789.38 371.866 C 1801.97 371.312 1814.87 372.834 1827.38 371.451 C 1834.08 370.711 1842.83 369.361 1848.79 366.093 C 1849.14 365.9 1850.3 365.319 1850.51 365.018 C 1850.76 364.665 1850.52 351.885 1851.4 348.991 C 1852.78 344.432 1854.08 340.747 1858.51 338.435 C 1861.23 337.014 1864.46 335.886 1867.48 336.901 C 1876.26 339.85 1868.12 359.858 1870.97 365.694 C 1877.66 379.355 1933.46 376.438 1948.5 382.293 C 1951.6 383.499 1952.78 384.955 1954.11 387.835 C 1952.95 392.447 1954.01 393.117 1951.05 395.542 C 1940.32 396.86 1921.88 391.334 1910.8 389.792 C 1903 388.683 1894.06 389.153 1886.48 387.113 C 1878.51 384.965 1867.28 380.939 1860.63 376.104 C 1834.15 386.463 1822.24 385.198 1795.38 384.766 C 1791.88 384.71 1774.09 386.941 1768.51 387.423 C 1758.43 390.197 1734.46 389.169 1723.07 388.926 C 1712.47 388.699 1712.52 386.357 1706.35 379.316 C 1696.5 376.094 1687.36 389.642 1679.64 394.036 C 1647.34 412.522 1602.41 435.995 1569.97 404.406 C 1559.56 394.266 1552.79 390.209 1541.13 382.538 C 1531.77 399.292 1508.21 412.913 1494.89 426.798 C 1468.28 454.556 1441.55 480.843 1412.05 505.576 C 1401.33 514.572 1391.33 526.782 1381.15 536.613 C 1354.8 559.169 1333.55 588.163 1310 612.283 C 1283.97 638.95 1275.75 653.463 1255.37 683.451 C 1241.11 704.427 1203.88 730.813 1187.22 752.005 C 1185.98 753.593 1181.46 752.873 1179.74 752.337 C 1174.5 747.14 1172.47 744.567 1178.14 738.847 C 1188.49 728.407 1197.02 710.612 1206.93 700.712 C 1236.72 670.942 1264.08 639.102 1292.24 607.804 C 1298.08 600.244 1301.82 588.748 1307.29 581.262 C 1328.82 551.833 1349.91 526.569 1364.16 492.428 C 1367.76 483.802 1385.21 469.346 1390.04 458.066 L 1388.96 456.278 C 1374.72 451.07 1333.3 507.125 1337.03 452.971 C 1337.82 441.522 1342.55 427.836 1351.46 420 L 1350.93 418.717 C 1345.31 416.392 1323.89 428.857 1315.79 431.337 C 1297.54 436.923 1276.81 440.467 1257.72 441.751 C 1250.19 442.557 1208.85 439.65 1204.7 443.25 C 1178.45 465.991 1170.55 474.78 1136.01 484.848 C 1130.13 481.941 1116.15 471.777 1116.12 465.552 C 1116.09 457.117 1114 424.678 1116.96 418.941 C 1124.02 412.175 1136.74 420.806 1144.96 422.246 C 1189.17 429.989 1195.91 437.359 1223.03 398.021 C 1242.42 369.89 1273.72 341.042 1294.47 313.027 C 1324.66 273.862 1348.66 225.545 1382.25 189.546 C 1409.49 160.361 1424.51 127.414 1450.73 98.0514 L 1450.35 97.1288 C 1446.36 96.7081 1423.53 103.175 1416.23 103.933 C 1378.9 107.315 1341.24 116.564 1303.93 120.06 C 1254.49 124.691 1205.75 131.248 1158.04 145.685 C 1136.87 152.093 1118.14 155.699 1095.81 154.669 C 1089.27 154.367 1069.95 150.133 1072.83 141.138 C 1079.36 135.418 1088.66 139.732 1096.73 140.872 C 1111.96 142.946 1127.77 141.023 1142.45 136.234 C 1221.2 110.535 1303.05 109.908 1383.68 94.6509 C 1401.18 91.3398 1418.78 91.369 1435.87 86.9971 C 1449.23 83.5784 1463.66 67.6742 1475.35 62.8957 z M 1544.72 355.521 C 1560.31 348.28 1587.96 315.424 1600.99 302.22 C 1605.13 298.023 1613.61 281.192 1616.7 278.839 C 1630.36 268.436 1631.79 260.431 1637.99 245.064 C 1639.72 240.78 1647.17 233.709 1649.43 229.171 C 1652.82 222.195 1656.22 215.113 1659.66 208.119 C 1669.29 188.518 1680.31 168.893 1687.92 148.449 C 1695.26 128.719 1693.41 108.926 1694.63 88.5545 L 1693.82 86.8992 C 1684.24 94.001 1677.07 110.117 1668.58 118.496 C 1650.76 135.984 1634.27 152.634 1620.69 173.779 C 1616.77 179.989 1607.24 187.539 1603.91 193.549 C 1596.45 206.982 1583.27 221.618 1576.63 234.857 C 1570.2 247.653 1562.64 264.445 1556.88 277.611 C 1551.9 288.963 1549.78 307.663 1545.57 319.939 C 1543.38 330.57 1546.05 344.192 1544.72 355.521 z M 1135.37 469.35 C 1152.45 465.537 1156.53 463.489 1171.59 453.855 C 1175.7 450.001 1180.94 443.709 1185.61 442.559 L 1185.65 440.741 C 1182.96 439.718 1179.44 441.507 1174.25 440.648 C 1156.74 437.75 1144.32 436.241 1127.39 430.84 C 1129.4 448.464 1124.14 454.206 1135.37 469.35 z"/>
<path transform="translate(0,0)" fill="rgb(0,0,0)" fill-opacity="0.980392" d="M 303.951 59.2129 C 347.394 55.2734 334.094 70.2335 336.464 101.724 C 338.266 125.684 332.994 145.661 332.556 168.893 C 331.555 191.012 324.729 211.24 320.94 233.505 C 316.608 258.959 306.712 293.868 297.725 318.053 L 272.473 384.852 C 267.627 397.772 260.358 407.86 262.117 422.033 C 263.208 430.822 262.808 440.245 261.682 449.002 C 269.049 442.955 279.334 437.116 285.804 431.127 C 308.551 410.072 324.61 386.167 352.246 371.178 C 359.888 367.034 369.721 342.565 383.967 342.59 C 394.028 342.607 394.806 347.299 396.428 356.066 C 399.001 375.129 386.268 391.145 385.048 410.198 C 384.319 421.585 388.418 426.026 389.389 436.961 L 401.152 440.872 C 424.514 433.315 450.89 406.574 467.36 388.324 C 477.161 377.463 488.315 363.163 501.397 356.135 C 503.185 355.174 504.624 355.477 506.467 356.031 C 519.39 359.916 511.088 396.124 516.506 406.043 C 527.837 413.051 545.86 377.632 561.08 376.93 C 571.984 381.593 563.955 397.371 568.697 404.357 C 576.61 406.025 592.184 381.419 602.733 380.921 C 612.532 380.457 610.782 405.938 611.038 412.045 L 620.835 417.926 C 636.936 413.962 653.369 411.493 669.924 410.55 C 672.118 400.698 689.932 348.34 709.884 361.662 C 716.693 366.208 715.103 388.043 714.916 397.093 L 714.601 397.6 C 710.639 403.837 702.912 410.9 697.354 416.029 C 692.958 420.084 685.634 417.892 683.137 421.947 C 682.807 426.161 685.179 430.6 686.865 434.599 L 698.522 439.569 C 716.453 423.974 747.369 391.433 762.369 373.736 C 765.786 372.684 764.541 372.603 767.905 373.442 C 775.821 380.027 767.979 397.987 773.582 400.529 C 784.981 403.294 809.928 403.479 821.223 401.804 C 859.422 396.138 898.244 392.637 935.077 380.602 C 947.802 376.444 955.082 368.506 969.379 364.521 C 972.908 358.45 976.271 350.397 984.916 351.897 C 989.657 357.093 984.423 364.846 981.193 369.912 C 977.124 376.295 967.35 378.486 960.944 382.208 C 927.767 401.487 887.38 405.846 850.004 410.894 C 840.557 412.126 821.85 415.231 812.765 415.601 C 793.719 416.377 781.875 414.23 762.077 417.511 C 754.257 410.093 755.52 412.331 755.873 401.907 L 754.785 401.571 C 750.515 408.24 722.796 433.994 715.736 441.12 C 696.869 461.031 692.826 456.15 671.993 441.178 L 670.329 427.286 L 665.172 424.446 C 646.246 429.449 635.676 425.826 619.817 433.871 C 614.31 430.522 608.737 427.284 603.101 424.158 C 597.641 413.086 597.539 410.267 599.545 398.475 C 588.646 405.338 569.37 431.887 557.323 426.666 C 552.482 420.747 556.434 406.517 554.501 397.374 C 545.275 404.083 536.703 412.452 527.606 419.094 C 520.21 424.494 511.328 440.492 502.797 440.8 C 493.06 435.614 501.173 411.98 501.802 402.555 C 502.442 392.981 501.792 382.211 503.8 373.004 C 484.652 384.579 489.07 386.14 475.292 398.728 C 455.483 416.827 417.759 464.744 388.356 452.696 C 377.367 448.193 375.795 433.485 372.788 423.495 C 362.663 433.165 356.214 442.068 347.203 452.502 C 341.119 459.545 327.163 466.158 319.63 471.954 C 310.07 479.309 300.695 476.026 302.57 462.899 C 305.42 444.079 317.069 429.874 325.254 413.587 C 325.611 412.877 324.939 412.186 324.511 411.432 C 318.489 413.746 300.907 434.999 294.608 440.554 C 290.284 444.367 281.197 449.827 277.859 453.516 C 268.966 463.824 261.763 475.28 253.269 486 C 244.632 496.9 229.508 506.796 222.228 518.244 C 210.549 536.61 202.256 557.766 193.84 577.745 C 188.112 591.344 180.161 604.08 175.043 617.985 C 161.578 652.412 149.927 687.047 133.013 720.054 C 126.307 732.159 117.719 742.668 108.905 753.205 C 102.299 761.103 105.136 765.071 93.4981 766.407 C 88.8872 763.409 89.0509 757.834 90.4306 753.057 C 94.3784 739.386 102.929 726.05 107.119 712.611 C 111.931 697.68 113.117 678.208 119.898 664.063 C 136.727 628.956 153.294 593.099 175.662 561.086 C 184.925 547.828 194.555 537.121 202.37 522.811 C 214.046 501.434 219.304 479.369 226.995 456.511 C 231.622 443.081 242.405 422.45 245.399 409.229 C 248.767 394.364 241.285 365.856 241.633 350.408 C 242.661 314.001 239.434 276.508 244.185 240.355 C 246.998 218.946 256.822 200.634 254.877 178.053 C 255.851 170.148 261.171 160.353 262.269 152.853 C 265.238 132.576 270.934 110.516 277.256 91.1604 C 280.743 80.485 293.277 63.4739 303.951 59.2129 z M 321.394 452.588 C 346.014 444.872 339.965 435.99 357.229 421.279 C 359.762 411.298 380.509 376.25 375.877 369.259 C 369.942 377.721 361.49 382.484 355.069 390.148 C 348.537 397.946 319.698 444.228 320.687 451.288 C 320.765 451.845 321.078 452.137 321.394 452.588 z M 313.854 72.3047 C 303.823 77.218 292.158 86.6786 288.75 97.5564 C 284.683 110.536 280.788 124.704 277.252 137.881 C 275.793 143.319 275.216 151.782 273.751 157.789 C 271.926 165.268 268.752 173.673 267.393 180.92 C 266.164 187.471 267.588 197.728 266.115 204.383 C 264.42 212.04 261.473 221.158 259.565 228.622 C 258.068 234.477 255.952 247.71 255.384 253.405 C 253.037 276.927 251.36 363.229 258.405 381.12 L 259.744 380.593 L 261.834 375.414 C 266.317 367.856 270.356 352.194 274.249 343.271 C 287.788 312.242 297.549 279.161 305.527 246.255 C 310.396 226.171 312.18 204.184 318.766 183.942 C 320.991 177.104 319.132 162.83 320.493 155.345 C 322.878 136.647 325.936 118.727 324.475 99.7191 C 323.8 90.9326 328.475 78.3925 320.484 72.4409 C 317.534 72.0663 316.834 72.0173 313.854 72.3047 z M 231.742 490.078 L 249.92 470.92 C 250.049 465.681 251.272 440.016 250.429 436.723 C 243.996 449.911 229.611 475.153 231.742 490.078 z M 124.555 691.045 C 122.08 699.446 121.628 702.311 122.499 711.036 L 123.424 712.028 C 127.044 707.264 125.696 702.574 128.621 699.761 C 130.803 692.421 138.949 678.96 140.389 673.464 C 143.252 662.535 165.64 612.561 164.631 605.413 L 163.644 605.588 C 156.866 613.572 154.099 623.32 149.658 631.807 C 138.296 653.52 131.469 667.488 124.555 691.045 z M 687.309 406.023 C 692.472 404.299 696.042 399.026 700.323 395.262 C 701.494 390.032 702.685 385.521 702.833 380.142 L 701.429 378.882 C 694.274 382.829 688.979 389.457 686.711 397.308 C 685.376 402.024 685.487 402.49 687.309 406.023 z"/>
<path transform="translate(0,0)" fill="url(#Gradient1)" d="M 124.555 691.045 C 131.469 667.488 138.296 653.52 149.658 631.807 C 154.099 623.32 156.866 613.572 163.644 605.588 L 164.631 605.413 C 165.64 612.561 143.252 662.535 140.389 673.464 C 138.949 678.96 130.803 692.421 128.621 699.761 C 126.867 695.685 125.521 697.504 124.555 691.045 z"/>
<path transform="translate(0,0)" fill="rgb(0,0,0)" fill-opacity="0.0431373" d="M 124.555 691.045 C 125.521 697.504 126.867 695.685 128.621 699.761 C 125.696 702.574 127.044 707.264 123.424 712.028 L 122.499 711.036 C 121.628 702.311 122.08 699.446 124.555 691.045 z"/>
</svg>